<?xml version="1.0" encoding="utf-8" ?><svg xmlns="http://www.w3.org/2000/svg" xmlns:xlink="http://www.w3.org/1999/xlink" width="2048" height="2048" viewBox="0 0 2048 2048"><path fill="#FAF8F5" d="M0 0L2048 0L2048 2048L0 2048L0 0Z"/><path fill="#FD4617" d="M511.106 829.713L511.002 673.504C510.964 642.701 508.968 588.74 515.396 561.286C522.321 531.35 537.47 503.943 559.135 482.154C582.677 458.321 612.946 442.261 645.88 436.131C666.756 432.282 714.456 433.575 738.25 433.588L886.591 433.542L1371.03 433.539C1416.51 433.71 1457.58 448.285 1489.88 481.135C1512.16 503.634 1527.55 532.04 1534.22 563C1539.17 586.944 1537.92 621.13 1537.94 646.61L1537.95 752.238C1537.94 872.538 1538.02 992.927 1537.8 1113.23C1537.55 1248.27 1480.05 1373.72 1383.45 1467.81C1314.34 1534.95 1228.5 1582.35 1134.87 1605.07C1093.01 1614.72 1066.48 1618.53 1023.83 1620.99C1023.2 1617.06 1023.21 1611.74 1023.06 1607.63C1019.64 1597.92 1023.91 1553.8 1022.41 1542.53C1019.62 1521.7 1026.4 1410.02 1020.39 1396.65C1018.82 1398.65 1017.87 1400.09 1016.48 1402.19C989.386 1487.43 922.931 1532.5 839.027 1554.18C825.485 1557.68 812.167 1559.49 798.515 1562.2C752.64 1542.21 698.7 1499.85 663.539 1464.85C565.291 1367.04 509.99 1246.16 509.79 1106.81C603.096 1215.99 719.298 1209.31 829.723 1128.26C835.892 1123.74 847.855 1115.46 851.75 1109.36C844.232 1114.09 836.507 1118.48 828.598 1122.52C775.666 1149.23 715.607 1157.05 658.819 1137.87C607.879 1121.06 565.703 1084.7 541.564 1036.79C516.298 986.145 512.439 927.474 530.855 873.958C545.003 833.271 572.64 797.639 608.258 773.206C617.675 766.747 629.451 761.158 639.81 756.12C641.65 753.27 642.308 753.736 643.866 751.72L643.743 751.588C638.662 750.161 631.208 753.233 624.676 753.268C616.347 755.089 604.537 759.874 596.58 763.313C559.607 779.293 536.57 799.533 511.106 829.713Z"/><path fill="#FED607" d="M1091.25 757.458C1080.6 787.127 1086.66 825.477 1099.61 853.822C1120.25 898.966 1116.84 956.081 1067.99 981.021C1047.98 991.239 1021.66 990.337 1000.9 982.756C955.42 967.702 928.204 911.596 945.4 866.779C951.513 850.846 961.026 835.003 968.175 819.438C981.662 794.309 993.317 762.806 1011.23 741.008C1017.23 733.709 1028.72 727.184 1037.38 723.466C1090.17 700.794 1149.37 685.487 1205.37 706.499C1227.15 714.669 1263.09 738.394 1272.84 760.009C1278.71 773.151 1282.92 790.346 1298.33 795.397C1334.33 807.192 1373.65 802.185 1410.95 804.381C1424.89 805.201 1451.18 802.459 1458.25 817.713C1460.37 822.374 1461.26 827.497 1460.84 832.598C1460.07 842.33 1455.3 850.11 1453.71 858.165C1451.05 871.684 1451.82 877.964 1446.35 891.614C1433.48 922.274 1403.34 957.657 1373.44 972.038C1353.33 981.709 1321.33 983.096 1299.38 985.283C1174.74 997.693 1170.86 1122.31 1203.73 1216.46C1213.26 1243.76 1223.04 1271.07 1219.57 1300.23C1216.53 1334.28 1200.78 1351.25 1188.32 1380.57C1183.95 1390.87 1179.07 1415.98 1176.17 1427.74C1168.26 1460.06 1160.56 1492.44 1153.08 1524.86L1141.63 1573.62C1139.68 1581.87 1135.7 1597.2 1134.87 1605.07C1093.01 1614.72 1066.48 1618.53 1023.83 1620.99C1023.2 1617.06 1023.21 1611.74 1023.06 1607.63C1019.64 1597.92 1023.91 1553.8 1022.41 1542.53C1019.62 1521.7 1026.4 1410.02 1020.39 1396.65C1018.82 1398.65 1017.87 1400.09 1016.48 1402.19C989.386 1487.43 922.931 1532.5 839.027 1554.18C825.485 1557.68 812.167 1559.49 798.515 1562.2C752.64 1542.21 698.7 1499.85 663.539 1464.85C565.291 1367.04 509.99 1246.16 509.79 1106.81C603.096 1215.99 719.298 1209.31 829.723 1128.26C835.892 1123.74 847.855 1115.46 851.75 1109.36C881.68 1085.51 893.723 1066.05 914.283 1034.33L950.124 978.661C965.202 1003.87 981.626 1019.53 1011.05 1026.94C1039.53 1033.84 1069.59 1029.23 1094.7 1014.12C1118.91 999.538 1139.4 972.918 1145.49 945.329C1157.95 888.792 1136.52 859.444 1113.42 813.733C1104.19 795.752 1096.76 776.902 1091.25 757.458Z"/><path fill="#FCF1CE" d="M1021.12 1379.35L1022.4 1380C1023.9 1389.22 1023.23 1424.95 1023.25 1436.57C1023.51 1475.83 1023.52 1515.08 1023.29 1554.34C1023.26 1562.63 1023.97 1602.79 1023.06 1607.63C1019.64 1597.92 1023.91 1553.8 1022.41 1542.53C1019.62 1521.7 1026.4 1410.02 1020.39 1396.65C1018.82 1398.65 1017.87 1400.09 1016.48 1402.19C1018.2 1394.61 1019.75 1387 1021.12 1379.35Z"/><path fill="#F9DE64" d="M1021.12 1379.35C1021.84 1374.38 1022.53 1368.63 1023.54 1363.78C1024.69 1383.81 1024.24 1406.85 1024.25 1427.07L1024.25 1527.98L1024.36 1588.33C1024.37 1595.33 1024.74 1614.66 1023.83 1620.99C1023.2 1617.06 1023.21 1611.74 1023.06 1607.63C1023.97 1602.79 1023.26 1562.63 1023.29 1554.34C1023.52 1515.08 1023.51 1475.83 1023.25 1436.57C1023.23 1424.95 1023.9 1389.22 1022.4 1380L1021.12 1379.35Z"/><path fill="#FCF1CE" d="M624.676 753.268C629.413 751.472 631.198 750.987 635.986 749.788C645.286 747.464 654.72 745.717 664.235 744.555L665.009 747.003C656.156 749.875 648.449 752.877 639.81 756.12C641.65 753.27 642.308 753.736 643.866 751.72L643.743 751.588C638.662 750.161 631.208 753.233 624.676 753.268Z"/><path fill="#FCBA96" d="M664.235 744.555C666.537 743.848 669.631 743.547 671.961 744.161L671.909 744.611L672.132 744.426L672.239 744.423C671.659 745.714 666.24 746.674 665.009 747.003L664.235 744.555Z"/></svg>