<?xml version="1.0" encoding="utf-8" ?><svg xmlns="http://www.w3.org/2000/svg" xmlns:xlink="http://www.w3.org/1999/xlink" width="2048" height="2048" viewBox="0 0 2048 2048"><path fill="#FEFEFE" d="M0 0L2048 0L2048 2048L0 2048L0 0Z"/><path fill="#FE4F21" d="M817.488 730.226C833.364 675.52 874.356 629.923 931.789 618.293C972.093 610.132 1015.07 618.558 1045.48 647.153C1058.37 659.276 1069.09 674.43 1087.74 678.371C1109.86 682.982 1136.71 679.779 1159.28 680.315C1174.08 680.666 1183.44 678.024 1196.31 686.718C1203.58 700.648 1196.6 716.185 1192.02 730.13L1402.39 730.23L1402.54 957.549C1402.72 1005.17 1404.01 1070.08 1400.03 1116.21C1403.75 1120.9 1402.75 1124 1401.96 1130.49C1390.92 1221.47 1333.93 1297.18 1263.83 1352.63C1230.89 1378.68 1181.49 1409.85 1143.16 1426.66C1104.11 1445.81 1063.8 1468.55 1025.02 1486.6C1002.78 1475.99 980.481 1465.62 958.794 1453.9C954.913 1451.8 940.829 1444.78 938.128 1442.77C926.554 1436.64 868.39 1409 862.135 1402.65C859.155 1399.73 830.1 1380.82 824.559 1376.89C804.076 1362.28 784.422 1346.53 765.689 1329.73C761.524 1326.55 756.045 1321.26 752.169 1317.59C687.957 1256.74 650.35 1191.38 647.409 1101.06C646.324 1067.75 647.155 1034.05 646.603 1000.5C645.602 967.413 646.419 930.841 646.464 897.457L646.578 730.089C703.246 730.751 760.689 729.9 817.488 730.226Z"/><path fill="#050239" d="M817.488 730.226C833.364 675.52 874.356 629.923 931.789 618.293C972.093 610.132 1015.07 618.558 1045.48 647.153C1058.37 659.276 1069.09 674.43 1087.74 678.371C1109.86 682.982 1136.71 679.779 1159.28 680.315C1174.08 680.666 1183.44 678.024 1196.31 686.718C1203.58 700.648 1196.6 716.185 1192.02 730.13C1180.73 764.592 1170.24 781.544 1137.86 799.102C1109.83 814.293 1094.71 808.451 1068 813.582C1023.69 822.093 981.202 868.324 968.551 910.35C955.326 950.596 957.009 995.627 955.202 1037.27L950.07 1154.6L941.999 1351.32C940.782 1381.45 938.764 1412.79 938.128 1442.77C926.554 1436.64 868.39 1409 862.135 1402.65C859.155 1399.73 830.1 1380.82 824.559 1376.89C804.076 1362.28 784.422 1346.53 765.689 1329.73C761.524 1326.55 756.045 1321.26 752.169 1317.59C687.957 1256.74 650.35 1191.38 647.409 1101.06C646.324 1067.75 647.155 1034.05 646.603 1000.5C645.602 967.413 646.419 930.841 646.464 897.457L646.578 730.089C703.246 730.751 760.689 729.9 817.488 730.226Z"/><path fill="#FE4F21" d="M933.587 712.015L935.756 711.401C937.846 720.444 940.738 731.47 942.464 740.42C951.053 789.461 956.701 846.085 927.508 889.552C906.58 920.713 857.348 955.365 820.283 932.2C796.224 917.163 795.277 859.272 795.923 833.514C795.581 831.2 795.388 829.327 795.199 826.998C793.778 828.271 792.676 829.314 791.317 830.646C774.194 902.974 723.836 983.427 646.603 1000.5C645.602 967.413 646.419 930.841 646.464 897.457L646.578 730.089C703.246 730.751 760.689 729.9 817.488 730.226C810.814 760.3 811.632 797.91 813.47 829.02C815.074 856.179 806.459 915.817 841.294 922.548C857.567 925.693 874.697 915.473 887.805 906.767C931.332 875.935 935.686 814.872 937.205 766.676C935.434 747.844 936.301 733.249 933.587 712.015Z"/><path fill="#8E2016" d="M794.128 816.819C793.966 814.518 793.957 813.595 794.608 811.325L795.29 810.639L795.354 810.646L795.304 810.527C796.598 813.367 796.132 829.621 795.923 833.514C795.581 831.2 795.388 829.327 795.199 826.998C795.123 822.636 794.912 821.105 794.128 816.819Z"/><path fill="#2D0011" d="M794.128 816.819C794.912 821.105 795.123 822.636 795.199 826.998C793.778 828.271 792.676 829.314 791.317 830.646C792.159 826.018 793.096 821.408 794.128 816.819Z"/><path fill="#FE4F21" d="M802.242 1206.23C802.994 1204.75 803.39 1203.78 805.083 1203.46L806.296 1203.19C841.326 1244.83 856.484 1348.4 862.135 1402.65C859.155 1399.73 830.1 1380.82 824.559 1376.89C804.076 1362.28 784.422 1346.53 765.689 1329.73C774.874 1328.58 782.737 1326.67 790.875 1322.28C838.556 1296.57 822.968 1243.57 802.242 1206.23Z"/><path fill="#DC5A3E" d="M787.296 1186.05C793.33 1190.31 802.27 1196.93 806.296 1203.19L805.083 1203.46C803.39 1203.78 802.994 1204.75 802.242 1206.23C798.779 1202.61 791.103 1190.9 787.296 1186.05Z"/><path fill="#883D44" d="M932.861 702.163C933.866 704.635 935.284 708.771 935.756 711.401L933.587 712.015C932.311 709.537 932.225 705.392 931.896 702.441L932.861 702.163Z"/><path fill="#2D1A43" d="M931.896 702.441C931.591 701.567 930.315 698.947 931.664 698.355C932.903 698.859 932.752 701.191 932.861 702.163L931.896 702.441Z"/><path fill="#050239" d="M1222.7 877.793L1242.02 822.018C1245.4 812.298 1251.88 788.566 1259.8 783.58C1266.48 783.583 1268.96 794.849 1270.96 800.915C1277.58 820.911 1284.64 840.669 1291.82 860.468L1345.57 1007.21C1352.75 1027.03 1359.87 1047.11 1366.7 1067.07C1373.93 1088.22 1383.27 1101.57 1400.03 1116.21C1403.75 1120.9 1402.75 1124 1401.96 1130.49C1390.92 1221.47 1333.93 1297.18 1263.83 1352.63C1230.89 1378.68 1181.49 1409.85 1143.16 1426.66C1143.42 1424.96 1150.25 1407.72 1151.45 1404.78C1161.03 1381.33 1164.55 1358.13 1169.35 1333.4C1174.51 1307.17 1179.51 1280.9 1184.33 1254.6C1189.71 1226.53 1198.7 1196.39 1199.38 1167.85C1199.78 1151.12 1196.82 1134.94 1189.81 1119.69C1178.42 1094.96 1154.57 1076.4 1127.29 1073.06C1116.5 1071.74 1105.13 1072.98 1094.81 1068.96C1086.61 1065.77 1077.2 1057.8 1073.85 1049.5C1070.2 1040.46 1068.71 1030.36 1065.46 1021.1C1061.61 1010.14 1052.04 991.488 1050.34 981.473C1049.87 978.657 1050.14 976.366 1051.35 973.729C1054.88 966.025 1100.96 951.288 1110.97 947.436C1138.64 900.833 1170.03 883.043 1222.7 877.793Z"/><path fill="#FE4F21" d="M577.593 718.941L579.333 718.921C581.497 722.304 580.471 785.725 580.495 794.525L580.516 1004.54C580.628 1075.92 575.862 1137.46 598.917 1206C623.218 1278.25 662.941 1327.55 717.239 1379.08C656.165 1386.74 591.729 1371.22 537.594 1342.78C465.488 1303.14 411.291 1244.73 380.388 1167.98C346.361 1084.64 346.653 991.236 381.203 908.115C419.23 818.976 488.132 754.831 577.593 718.941Z"/><path fill="#FE4F21" d="M1468.45 717.793C1494.7 728.389 1518.42 739.403 1541.77 755.558C1756.42 904.114 1739.04 1213.7 1514.54 1340.72C1463.8 1369.53 1390.24 1387.68 1332.35 1379.8C1339.3 1373.08 1346.19 1366.29 1353.02 1359.44C1423.73 1288.31 1461.32 1216 1468.3 1114.27C1469.57 1095.78 1468.99 1076.85 1468.94 1058.29L1468.85 972.958L1468.45 717.793Z"/><path fill="#050239" d="M1343.89 564.598C1370.64 559.384 1396.54 576.882 1401.69 603.645C1406.84 630.409 1389.27 656.265 1362.5 661.346C1335.82 666.409 1310.07 648.922 1304.94 622.252C1299.81 595.582 1317.24 569.793 1343.89 564.598Z"/><path fill="#050239" d="M686.402 564.528C713.081 559.602 738.722 577.174 743.754 603.833C748.786 630.492 731.315 656.202 704.676 661.339C677.888 666.505 652.002 648.915 646.942 622.107C641.882 595.298 659.574 569.483 686.402 564.528Z"/></svg>